<?xml version="1.0" standalone="no"?><!-- Generator: Gravit.io --><svg xmlns="http://www.w3.org/2000/svg" xmlns:xlink="http://www.w3.org/1999/xlink" style="isolation:isolate" viewBox="1057 762.799 90 98.571" width="90" height="98.571"><path d=" M 1102 762.799 C 1100.468 762.799 1098.936 763.185 1097.573 763.956 L 1061.479 784.234 C 1058.729 785.763 1057.017 788.656 1057 791.803 L 1057 832.367 C 1057 835.481 1058.714 838.384 1061.479 839.933 L 1097.573 860.216 C 1098.936 860.987 1100.468 861.371 1102 861.371 C 1103.532 861.371 1105.064 860.985 1106.427 860.213 L 1142.521 839.942 C 1145.27 838.408 1146.981 835.514 1147 832.367 L 1147 791.803 C 1147 788.689 1145.286 785.786 1142.521 784.236 L 1106.427 763.954 C 1105.075 763.195 1103.55 762.797 1102 762.799 Z  M 1102 786.371 C 1110.102 786.371 1117.594 790.129 1122.449 796.523 L 1113.057 801.966 C 1110.22 798.859 1106.208 797.087 1102 797.085 C 1093.729 797.085 1087 803.813 1087 812.085 C 1087 820.356 1093.729 827.085 1102 827.085 C 1106.207 827.083 1110.22 825.312 1113.057 822.206 L 1122.449 827.646 C 1117.606 834.055 1110.033 837.815 1102 837.799 C 1087.821 837.799 1076.286 826.264 1076.286 812.085 C 1076.286 797.906 1087.821 786.371 1102 786.371 Z " fill="rgb(0,0,0)"/></svg>